<mxfile host="app.diagrams.net" modified="2021-12-10T09:38:23.653Z" agent="5.0 (Windows NT 10.0; Win64; x64) AppleWebKit/537.36 (KHTML, like Gecko) Chrome/93.0.4577.82 Safari/537.36" etag="pcaMei_25h8beZx1Ap0s" version="15.9.1" type="github">
  <diagram id="ly7fUuKlUHQHd62QbaYs" name="第 1 页">
    <mxGraphModel dx="2844" dy="1508" grid="1" gridSize="10" guides="1" tooltips="1" connect="1" arrows="1" fold="1" page="1" pageScale="1" pageWidth="827" pageHeight="1169" math="0" shadow="0">
      <root>
        <mxCell id="0" />
        <mxCell id="1" parent="0" />
        <mxCell id="r5M-6qAJxc-QIYMJjNey-6" value="" style="edgeStyle=orthogonalEdgeStyle;rounded=0;orthogonalLoop=1;jettySize=auto;html=1;" edge="1" parent="1" source="r5M-6qAJxc-QIYMJjNey-1" target="r5M-6qAJxc-QIYMJjNey-5">
          <mxGeometry relative="1" as="geometry" />
        </mxCell>
        <mxCell id="r5M-6qAJxc-QIYMJjNey-1" value="用户登录" style="rounded=1;whiteSpace=wrap;html=1;" vertex="1" parent="1">
          <mxGeometry x="150" y="50" width="120" height="60" as="geometry" />
        </mxCell>
        <mxCell id="r5M-6qAJxc-QIYMJjNey-4" value="" style="edgeStyle=orthogonalEdgeStyle;rounded=0;orthogonalLoop=1;jettySize=auto;html=1;" edge="1" parent="1" source="r5M-6qAJxc-QIYMJjNey-3" target="r5M-6qAJxc-QIYMJjNey-1">
          <mxGeometry relative="1" as="geometry" />
        </mxCell>
        <mxCell id="r5M-6qAJxc-QIYMJjNey-3" value="Actor" style="shape=umlActor;verticalLabelPosition=bottom;verticalAlign=top;html=1;outlineConnect=0;" vertex="1" parent="1">
          <mxGeometry x="50" y="50" width="30" height="60" as="geometry" />
        </mxCell>
        <mxCell id="r5M-6qAJxc-QIYMJjNey-8" value="" style="edgeStyle=orthogonalEdgeStyle;rounded=0;orthogonalLoop=1;jettySize=auto;html=1;" edge="1" parent="1" source="r5M-6qAJxc-QIYMJjNey-5" target="r5M-6qAJxc-QIYMJjNey-7">
          <mxGeometry relative="1" as="geometry" />
        </mxCell>
        <mxCell id="r5M-6qAJxc-QIYMJjNey-5" value="用户上传图片" style="rounded=1;whiteSpace=wrap;html=1;" vertex="1" parent="1">
          <mxGeometry x="350" y="50" width="120" height="60" as="geometry" />
        </mxCell>
        <mxCell id="r5M-6qAJxc-QIYMJjNey-10" value="" style="edgeStyle=orthogonalEdgeStyle;rounded=0;orthogonalLoop=1;jettySize=auto;html=1;" edge="1" parent="1" source="r5M-6qAJxc-QIYMJjNey-7" target="r5M-6qAJxc-QIYMJjNey-9">
          <mxGeometry relative="1" as="geometry" />
        </mxCell>
        <mxCell id="r5M-6qAJxc-QIYMJjNey-7" value="上传到腾讯云COS" style="rounded=1;whiteSpace=wrap;html=1;" vertex="1" parent="1">
          <mxGeometry x="550" y="50" width="120" height="60" as="geometry" />
        </mxCell>
        <mxCell id="r5M-6qAJxc-QIYMJjNey-12" value="" style="edgeStyle=orthogonalEdgeStyle;rounded=0;orthogonalLoop=1;jettySize=auto;html=1;" edge="1" parent="1" source="r5M-6qAJxc-QIYMJjNey-9" target="r5M-6qAJxc-QIYMJjNey-11">
          <mxGeometry relative="1" as="geometry" />
        </mxCell>
        <mxCell id="r5M-6qAJxc-QIYMJjNey-9" value="通知系统上传完成" style="rounded=1;whiteSpace=wrap;html=1;" vertex="1" parent="1">
          <mxGeometry x="750" y="50" width="120" height="60" as="geometry" />
        </mxCell>
        <mxCell id="r5M-6qAJxc-QIYMJjNey-14" value="" style="edgeStyle=orthogonalEdgeStyle;rounded=0;orthogonalLoop=1;jettySize=auto;html=1;" edge="1" parent="1" source="r5M-6qAJxc-QIYMJjNey-11" target="r5M-6qAJxc-QIYMJjNey-13">
          <mxGeometry relative="1" as="geometry" />
        </mxCell>
        <mxCell id="r5M-6qAJxc-QIYMJjNey-11" value="记录用户上传信息" style="rounded=1;whiteSpace=wrap;html=1;" vertex="1" parent="1">
          <mxGeometry x="750" y="190" width="120" height="60" as="geometry" />
        </mxCell>
        <mxCell id="r5M-6qAJxc-QIYMJjNey-13" value="完成" style="rounded=1;whiteSpace=wrap;html=1;" vertex="1" parent="1">
          <mxGeometry x="550" y="190" width="120" height="60" as="geometry" />
        </mxCell>
        <mxCell id="r5M-6qAJxc-QIYMJjNey-20" value="" style="edgeStyle=orthogonalEdgeStyle;rounded=0;orthogonalLoop=1;jettySize=auto;html=1;" edge="1" parent="1" source="r5M-6qAJxc-QIYMJjNey-16" target="r5M-6qAJxc-QIYMJjNey-19">
          <mxGeometry relative="1" as="geometry" />
        </mxCell>
        <mxCell id="r5M-6qAJxc-QIYMJjNey-16" value="Actor" style="shape=umlActor;verticalLabelPosition=bottom;verticalAlign=top;html=1;outlineConnect=0;" vertex="1" parent="1">
          <mxGeometry x="50" y="300" width="30" height="60" as="geometry" />
        </mxCell>
        <mxCell id="r5M-6qAJxc-QIYMJjNey-22" value="" style="edgeStyle=orthogonalEdgeStyle;rounded=0;orthogonalLoop=1;jettySize=auto;html=1;" edge="1" parent="1" source="r5M-6qAJxc-QIYMJjNey-19" target="r5M-6qAJxc-QIYMJjNey-21">
          <mxGeometry relative="1" as="geometry" />
        </mxCell>
        <mxCell id="r5M-6qAJxc-QIYMJjNey-19" value="填写宠物信息" style="rounded=1;whiteSpace=wrap;html=1;" vertex="1" parent="1">
          <mxGeometry x="150" y="300" width="120" height="60" as="geometry" />
        </mxCell>
        <mxCell id="r5M-6qAJxc-QIYMJjNey-24" value="" style="edgeStyle=orthogonalEdgeStyle;rounded=0;orthogonalLoop=1;jettySize=auto;html=1;" edge="1" parent="1" source="r5M-6qAJxc-QIYMJjNey-21" target="r5M-6qAJxc-QIYMJjNey-23">
          <mxGeometry relative="1" as="geometry" />
        </mxCell>
        <mxCell id="r5M-6qAJxc-QIYMJjNey-26" value="" style="edgeStyle=orthogonalEdgeStyle;rounded=0;orthogonalLoop=1;jettySize=auto;html=1;exitX=0.5;exitY=1;exitDx=0;exitDy=0;" edge="1" parent="1" source="r5M-6qAJxc-QIYMJjNey-19" target="r5M-6qAJxc-QIYMJjNey-25">
          <mxGeometry relative="1" as="geometry" />
        </mxCell>
        <mxCell id="r5M-6qAJxc-QIYMJjNey-21" value="上传宠物信息" style="rounded=1;whiteSpace=wrap;html=1;" vertex="1" parent="1">
          <mxGeometry x="350" y="300" width="120" height="60" as="geometry" />
        </mxCell>
        <mxCell id="r5M-6qAJxc-QIYMJjNey-23" value="完成" style="whiteSpace=wrap;html=1;rounded=1;" vertex="1" parent="1">
          <mxGeometry x="550" y="300" width="120" height="60" as="geometry" />
        </mxCell>
        <mxCell id="r5M-6qAJxc-QIYMJjNey-28" value="" style="edgeStyle=orthogonalEdgeStyle;rounded=0;orthogonalLoop=1;jettySize=auto;html=1;" edge="1" parent="1" source="r5M-6qAJxc-QIYMJjNey-25" target="r5M-6qAJxc-QIYMJjNey-27">
          <mxGeometry relative="1" as="geometry" />
        </mxCell>
        <mxCell id="r5M-6qAJxc-QIYMJjNey-25" value="上传宠物头像" style="rounded=1;whiteSpace=wrap;html=1;" vertex="1" parent="1">
          <mxGeometry x="150" y="440" width="120" height="60" as="geometry" />
        </mxCell>
        <mxCell id="r5M-6qAJxc-QIYMJjNey-29" value="" style="edgeStyle=orthogonalEdgeStyle;rounded=0;orthogonalLoop=1;jettySize=auto;html=1;entryX=0.5;entryY=1;entryDx=0;entryDy=0;" edge="1" parent="1" source="r5M-6qAJxc-QIYMJjNey-27" target="r5M-6qAJxc-QIYMJjNey-21">
          <mxGeometry relative="1" as="geometry" />
        </mxCell>
        <mxCell id="r5M-6qAJxc-QIYMJjNey-27" value="记录用户上传信息" style="rounded=1;whiteSpace=wrap;html=1;" vertex="1" parent="1">
          <mxGeometry x="350" y="440" width="120" height="60" as="geometry" />
        </mxCell>
        <mxCell id="r5M-6qAJxc-QIYMJjNey-32" value="" style="edgeStyle=orthogonalEdgeStyle;rounded=0;orthogonalLoop=1;jettySize=auto;html=1;" edge="1" parent="1" source="r5M-6qAJxc-QIYMJjNey-30" target="r5M-6qAJxc-QIYMJjNey-31">
          <mxGeometry relative="1" as="geometry" />
        </mxCell>
        <mxCell id="r5M-6qAJxc-QIYMJjNey-30" value="Actor" style="shape=umlActor;verticalLabelPosition=bottom;verticalAlign=top;html=1;outlineConnect=0;" vertex="1" parent="1">
          <mxGeometry x="50" y="550" width="30" height="60" as="geometry" />
        </mxCell>
        <mxCell id="r5M-6qAJxc-QIYMJjNey-34" value="" style="edgeStyle=orthogonalEdgeStyle;rounded=0;orthogonalLoop=1;jettySize=auto;html=1;" edge="1" parent="1" source="r5M-6qAJxc-QIYMJjNey-31" target="r5M-6qAJxc-QIYMJjNey-33">
          <mxGeometry relative="1" as="geometry" />
        </mxCell>
        <mxCell id="r5M-6qAJxc-QIYMJjNey-31" value="选择宠物" style="rounded=1;whiteSpace=wrap;html=1;" vertex="1" parent="1">
          <mxGeometry x="150" y="550" width="120" height="60" as="geometry" />
        </mxCell>
        <mxCell id="r5M-6qAJxc-QIYMJjNey-36" value="" style="edgeStyle=orthogonalEdgeStyle;rounded=0;orthogonalLoop=1;jettySize=auto;html=1;" edge="1" parent="1" source="r5M-6qAJxc-QIYMJjNey-33">
          <mxGeometry relative="1" as="geometry">
            <mxPoint x="550" y="580" as="targetPoint" />
          </mxGeometry>
        </mxCell>
        <mxCell id="r5M-6qAJxc-QIYMJjNey-33" value="填写提醒信息" style="rounded=1;whiteSpace=wrap;html=1;" vertex="1" parent="1">
          <mxGeometry x="350" y="550" width="120" height="60" as="geometry" />
        </mxCell>
        <mxCell id="r5M-6qAJxc-QIYMJjNey-39" value="" style="edgeStyle=orthogonalEdgeStyle;rounded=0;orthogonalLoop=1;jettySize=auto;html=1;" edge="1" parent="1" source="r5M-6qAJxc-QIYMJjNey-37" target="r5M-6qAJxc-QIYMJjNey-38">
          <mxGeometry relative="1" as="geometry" />
        </mxCell>
        <mxCell id="r5M-6qAJxc-QIYMJjNey-37" value="添加提醒记录" style="rounded=1;whiteSpace=wrap;html=1;" vertex="1" parent="1">
          <mxGeometry x="550" y="550" width="120" height="60" as="geometry" />
        </mxCell>
        <mxCell id="r5M-6qAJxc-QIYMJjNey-41" value="" style="edgeStyle=orthogonalEdgeStyle;rounded=0;orthogonalLoop=1;jettySize=auto;html=1;" edge="1" parent="1" source="r5M-6qAJxc-QIYMJjNey-38" target="r5M-6qAJxc-QIYMJjNey-40">
          <mxGeometry relative="1" as="geometry" />
        </mxCell>
        <mxCell id="r5M-6qAJxc-QIYMJjNey-38" value="请求腾讯TPNS通知" style="rounded=1;whiteSpace=wrap;html=1;" vertex="1" parent="1">
          <mxGeometry x="750" y="550" width="120" height="60" as="geometry" />
        </mxCell>
        <mxCell id="r5M-6qAJxc-QIYMJjNey-40" value="完成提醒" style="rounded=1;whiteSpace=wrap;html=1;" vertex="1" parent="1">
          <mxGeometry x="750" y="690" width="120" height="60" as="geometry" />
        </mxCell>
        <mxCell id="r5M-6qAJxc-QIYMJjNey-44" value="" style="edgeStyle=orthogonalEdgeStyle;rounded=0;orthogonalLoop=1;jettySize=auto;html=1;" edge="1" parent="1" source="r5M-6qAJxc-QIYMJjNey-42" target="r5M-6qAJxc-QIYMJjNey-43">
          <mxGeometry relative="1" as="geometry" />
        </mxCell>
        <mxCell id="r5M-6qAJxc-QIYMJjNey-42" value="Actor" style="shape=umlActor;verticalLabelPosition=bottom;verticalAlign=top;html=1;outlineConnect=0;" vertex="1" parent="1">
          <mxGeometry x="50" y="790" width="30" height="60" as="geometry" />
        </mxCell>
        <mxCell id="r5M-6qAJxc-QIYMJjNey-46" value="" style="edgeStyle=orthogonalEdgeStyle;rounded=0;orthogonalLoop=1;jettySize=auto;html=1;" edge="1" parent="1" source="r5M-6qAJxc-QIYMJjNey-43" target="r5M-6qAJxc-QIYMJjNey-45">
          <mxGeometry relative="1" as="geometry" />
        </mxCell>
        <mxCell id="r5M-6qAJxc-QIYMJjNey-43" value="宠圈文章发布" style="rounded=1;whiteSpace=wrap;html=1;" vertex="1" parent="1">
          <mxGeometry x="160" y="790" width="120" height="60" as="geometry" />
        </mxCell>
        <mxCell id="r5M-6qAJxc-QIYMJjNey-48" value="" style="edgeStyle=orthogonalEdgeStyle;rounded=0;orthogonalLoop=1;jettySize=auto;html=1;" edge="1" parent="1" source="r5M-6qAJxc-QIYMJjNey-45" target="r5M-6qAJxc-QIYMJjNey-47">
          <mxGeometry relative="1" as="geometry" />
        </mxCell>
        <mxCell id="r5M-6qAJxc-QIYMJjNey-50" value="" style="edgeStyle=orthogonalEdgeStyle;rounded=0;orthogonalLoop=1;jettySize=auto;html=1;" edge="1" parent="1" source="r5M-6qAJxc-QIYMJjNey-45" target="r5M-6qAJxc-QIYMJjNey-49">
          <mxGeometry relative="1" as="geometry" />
        </mxCell>
        <mxCell id="r5M-6qAJxc-QIYMJjNey-45" value="填写宠圈信息" style="rounded=1;whiteSpace=wrap;html=1;" vertex="1" parent="1">
          <mxGeometry x="360" y="790" width="120" height="60" as="geometry" />
        </mxCell>
        <mxCell id="r5M-6qAJxc-QIYMJjNey-47" value="完成文章发布" style="rounded=1;whiteSpace=wrap;html=1;" vertex="1" parent="1">
          <mxGeometry x="560" y="790" width="120" height="60" as="geometry" />
        </mxCell>
        <mxCell id="r5M-6qAJxc-QIYMJjNey-52" value="" style="edgeStyle=orthogonalEdgeStyle;rounded=0;orthogonalLoop=1;jettySize=auto;html=1;" edge="1" parent="1" source="r5M-6qAJxc-QIYMJjNey-49" target="r5M-6qAJxc-QIYMJjNey-51">
          <mxGeometry relative="1" as="geometry" />
        </mxCell>
        <mxCell id="r5M-6qAJxc-QIYMJjNey-49" value="上传图片/视频到腾讯COS" style="rounded=1;whiteSpace=wrap;html=1;" vertex="1" parent="1">
          <mxGeometry x="360" y="930" width="120" height="60" as="geometry" />
        </mxCell>
        <mxCell id="r5M-6qAJxc-QIYMJjNey-54" value="" style="edgeStyle=orthogonalEdgeStyle;rounded=0;orthogonalLoop=1;jettySize=auto;html=1;" edge="1" parent="1" source="r5M-6qAJxc-QIYMJjNey-51" target="r5M-6qAJxc-QIYMJjNey-47">
          <mxGeometry relative="1" as="geometry" />
        </mxCell>
        <mxCell id="r5M-6qAJxc-QIYMJjNey-51" value="记录用户上传信息" style="rounded=1;whiteSpace=wrap;html=1;" vertex="1" parent="1">
          <mxGeometry x="560" y="930" width="120" height="60" as="geometry" />
        </mxCell>
        <mxCell id="r5M-6qAJxc-QIYMJjNey-53" value="可选" style="text;html=1;align=center;verticalAlign=middle;resizable=0;points=[];autosize=1;strokeColor=none;fillColor=none;" vertex="1" parent="1">
          <mxGeometry x="430" y="880" width="40" height="20" as="geometry" />
        </mxCell>
        <mxCell id="r5M-6qAJxc-QIYMJjNey-55" value="上传成功" style="text;html=1;align=center;verticalAlign=middle;resizable=0;points=[];autosize=1;strokeColor=none;fillColor=none;" vertex="1" parent="1">
          <mxGeometry x="490" y="930" width="60" height="20" as="geometry" />
        </mxCell>
        <mxCell id="r5M-6qAJxc-QIYMJjNey-58" value="" style="edgeStyle=orthogonalEdgeStyle;rounded=0;orthogonalLoop=1;jettySize=auto;html=1;" edge="1" parent="1" source="r5M-6qAJxc-QIYMJjNey-56" target="r5M-6qAJxc-QIYMJjNey-57">
          <mxGeometry relative="1" as="geometry" />
        </mxCell>
        <mxCell id="r5M-6qAJxc-QIYMJjNey-56" value="Actor" style="shape=umlActor;verticalLabelPosition=bottom;verticalAlign=top;html=1;outlineConnect=0;" vertex="1" parent="1">
          <mxGeometry x="50" y="1030" width="30" height="60" as="geometry" />
        </mxCell>
        <mxCell id="r5M-6qAJxc-QIYMJjNey-60" value="" style="edgeStyle=orthogonalEdgeStyle;rounded=0;orthogonalLoop=1;jettySize=auto;html=1;" edge="1" parent="1" source="r5M-6qAJxc-QIYMJjNey-57" target="r5M-6qAJxc-QIYMJjNey-59">
          <mxGeometry relative="1" as="geometry" />
        </mxCell>
        <mxCell id="r5M-6qAJxc-QIYMJjNey-105" value="" style="edgeStyle=orthogonalEdgeStyle;rounded=0;orthogonalLoop=1;jettySize=auto;html=1;" edge="1" parent="1" source="r5M-6qAJxc-QIYMJjNey-57" target="r5M-6qAJxc-QIYMJjNey-80">
          <mxGeometry relative="1" as="geometry" />
        </mxCell>
        <mxCell id="r5M-6qAJxc-QIYMJjNey-57" value="文章评论/删除评论" style="rounded=1;whiteSpace=wrap;html=1;" vertex="1" parent="1">
          <mxGeometry x="160" y="1030" width="120" height="60" as="geometry" />
        </mxCell>
        <mxCell id="r5M-6qAJxc-QIYMJjNey-62" value="" style="edgeStyle=orthogonalEdgeStyle;rounded=0;orthogonalLoop=1;jettySize=auto;html=1;" edge="1" parent="1" source="r5M-6qAJxc-QIYMJjNey-59" target="r5M-6qAJxc-QIYMJjNey-61">
          <mxGeometry relative="1" as="geometry" />
        </mxCell>
        <mxCell id="r5M-6qAJxc-QIYMJjNey-59" value="添加评论记录" style="rounded=1;whiteSpace=wrap;html=1;" vertex="1" parent="1">
          <mxGeometry x="360" y="1030" width="120" height="60" as="geometry" />
        </mxCell>
        <mxCell id="r5M-6qAJxc-QIYMJjNey-64" value="" style="edgeStyle=orthogonalEdgeStyle;rounded=0;orthogonalLoop=1;jettySize=auto;html=1;" edge="1" parent="1" source="r5M-6qAJxc-QIYMJjNey-61" target="r5M-6qAJxc-QIYMJjNey-63">
          <mxGeometry relative="1" as="geometry" />
        </mxCell>
        <mxCell id="r5M-6qAJxc-QIYMJjNey-69" value="" style="edgeStyle=orthogonalEdgeStyle;rounded=0;orthogonalLoop=1;jettySize=auto;html=1;" edge="1" parent="1" source="r5M-6qAJxc-QIYMJjNey-61" target="r5M-6qAJxc-QIYMJjNey-67">
          <mxGeometry relative="1" as="geometry" />
        </mxCell>
        <mxCell id="r5M-6qAJxc-QIYMJjNey-61" value="通知" style="rounded=1;whiteSpace=wrap;html=1;" vertex="1" parent="1">
          <mxGeometry x="560" y="1030" width="120" height="60" as="geometry" />
        </mxCell>
        <mxCell id="r5M-6qAJxc-QIYMJjNey-66" value="" style="edgeStyle=orthogonalEdgeStyle;rounded=0;orthogonalLoop=1;jettySize=auto;html=1;" edge="1" parent="1" source="r5M-6qAJxc-QIYMJjNey-63" target="r5M-6qAJxc-QIYMJjNey-65">
          <mxGeometry relative="1" as="geometry" />
        </mxCell>
        <mxCell id="r5M-6qAJxc-QIYMJjNey-63" value="通知文章发布者" style="rounded=1;whiteSpace=wrap;html=1;" vertex="1" parent="1">
          <mxGeometry x="560" y="1170" width="120" height="60" as="geometry" />
        </mxCell>
        <mxCell id="r5M-6qAJxc-QIYMJjNey-68" value="" style="edgeStyle=orthogonalEdgeStyle;rounded=0;orthogonalLoop=1;jettySize=auto;html=1;" edge="1" parent="1" source="r5M-6qAJxc-QIYMJjNey-65" target="r5M-6qAJxc-QIYMJjNey-67">
          <mxGeometry relative="1" as="geometry" />
        </mxCell>
        <mxCell id="r5M-6qAJxc-QIYMJjNey-65" value="请求腾讯云TPNS消息通知" style="rounded=1;whiteSpace=wrap;html=1;" vertex="1" parent="1">
          <mxGeometry x="760" y="1170" width="120" height="60" as="geometry" />
        </mxCell>
        <mxCell id="r5M-6qAJxc-QIYMJjNey-67" value="完成" style="whiteSpace=wrap;html=1;rounded=1;" vertex="1" parent="1">
          <mxGeometry x="760" y="1030" width="120" height="60" as="geometry" />
        </mxCell>
        <mxCell id="r5M-6qAJxc-QIYMJjNey-74" value="" style="edgeStyle=orthogonalEdgeStyle;rounded=0;orthogonalLoop=1;jettySize=auto;html=1;" edge="1" parent="1" source="r5M-6qAJxc-QIYMJjNey-70" target="r5M-6qAJxc-QIYMJjNey-73">
          <mxGeometry relative="1" as="geometry" />
        </mxCell>
        <mxCell id="r5M-6qAJxc-QIYMJjNey-70" value="Actor" style="shape=umlActor;verticalLabelPosition=bottom;verticalAlign=top;html=1;outlineConnect=0;" vertex="1" parent="1">
          <mxGeometry x="40" y="1290" width="30" height="60" as="geometry" />
        </mxCell>
        <mxCell id="r5M-6qAJxc-QIYMJjNey-90" value="" style="edgeStyle=orthogonalEdgeStyle;rounded=0;orthogonalLoop=1;jettySize=auto;html=1;" edge="1" parent="1" source="r5M-6qAJxc-QIYMJjNey-73" target="r5M-6qAJxc-QIYMJjNey-89">
          <mxGeometry relative="1" as="geometry" />
        </mxCell>
        <mxCell id="r5M-6qAJxc-QIYMJjNey-94" value="" style="edgeStyle=orthogonalEdgeStyle;rounded=0;orthogonalLoop=1;jettySize=auto;html=1;" edge="1" parent="1" source="r5M-6qAJxc-QIYMJjNey-73" target="r5M-6qAJxc-QIYMJjNey-93">
          <mxGeometry relative="1" as="geometry" />
        </mxCell>
        <mxCell id="r5M-6qAJxc-QIYMJjNey-73" value="文章点赞/取消点赞" style="rounded=1;whiteSpace=wrap;html=1;" vertex="1" parent="1">
          <mxGeometry x="150" y="1290" width="120" height="60" as="geometry" />
        </mxCell>
        <mxCell id="r5M-6qAJxc-QIYMJjNey-88" value="" style="edgeStyle=orthogonalEdgeStyle;rounded=0;orthogonalLoop=1;jettySize=auto;html=1;" edge="1" parent="1" source="r5M-6qAJxc-QIYMJjNey-80" target="r5M-6qAJxc-QIYMJjNey-87">
          <mxGeometry relative="1" as="geometry" />
        </mxCell>
        <mxCell id="r5M-6qAJxc-QIYMJjNey-80" value="权限校验" style="rounded=1;whiteSpace=wrap;html=1;" vertex="1" parent="1">
          <mxGeometry x="160" y="1130" width="120" height="60" as="geometry" />
        </mxCell>
        <mxCell id="r5M-6qAJxc-QIYMJjNey-87" value="完成" style="rounded=1;whiteSpace=wrap;html=1;" vertex="1" parent="1">
          <mxGeometry x="360" y="1130" width="120" height="60" as="geometry" />
        </mxCell>
        <mxCell id="r5M-6qAJxc-QIYMJjNey-92" value="" style="edgeStyle=orthogonalEdgeStyle;rounded=0;orthogonalLoop=1;jettySize=auto;html=1;" edge="1" parent="1" source="r5M-6qAJxc-QIYMJjNey-89" target="r5M-6qAJxc-QIYMJjNey-91">
          <mxGeometry relative="1" as="geometry" />
        </mxCell>
        <mxCell id="r5M-6qAJxc-QIYMJjNey-89" value="文章点赞" style="rounded=1;whiteSpace=wrap;html=1;" vertex="1" parent="1">
          <mxGeometry x="350" y="1290" width="120" height="60" as="geometry" />
        </mxCell>
        <mxCell id="r5M-6qAJxc-QIYMJjNey-96" value="" style="edgeStyle=orthogonalEdgeStyle;rounded=0;orthogonalLoop=1;jettySize=auto;html=1;" edge="1" parent="1" source="r5M-6qAJxc-QIYMJjNey-91" target="r5M-6qAJxc-QIYMJjNey-95">
          <mxGeometry relative="1" as="geometry" />
        </mxCell>
        <mxCell id="r5M-6qAJxc-QIYMJjNey-91" value="通知校验" style="rounded=1;whiteSpace=wrap;html=1;" vertex="1" parent="1">
          <mxGeometry x="550" y="1290" width="120" height="60" as="geometry" />
        </mxCell>
        <mxCell id="r5M-6qAJxc-QIYMJjNey-104" value="" style="edgeStyle=orthogonalEdgeStyle;rounded=0;orthogonalLoop=1;jettySize=auto;html=1;" edge="1" parent="1" source="r5M-6qAJxc-QIYMJjNey-93" target="r5M-6qAJxc-QIYMJjNey-103">
          <mxGeometry relative="1" as="geometry" />
        </mxCell>
        <mxCell id="r5M-6qAJxc-QIYMJjNey-93" value="取消点赞" style="rounded=1;whiteSpace=wrap;html=1;" vertex="1" parent="1">
          <mxGeometry x="150" y="1430" width="120" height="60" as="geometry" />
        </mxCell>
        <mxCell id="r5M-6qAJxc-QIYMJjNey-98" value="" style="edgeStyle=orthogonalEdgeStyle;rounded=0;orthogonalLoop=1;jettySize=auto;html=1;" edge="1" parent="1" source="r5M-6qAJxc-QIYMJjNey-95" target="r5M-6qAJxc-QIYMJjNey-97">
          <mxGeometry relative="1" as="geometry" />
        </mxCell>
        <mxCell id="r5M-6qAJxc-QIYMJjNey-95" value="通知" style="rounded=1;whiteSpace=wrap;html=1;" vertex="1" parent="1">
          <mxGeometry x="750" y="1290" width="120" height="60" as="geometry" />
        </mxCell>
        <mxCell id="r5M-6qAJxc-QIYMJjNey-100" value="" style="edgeStyle=orthogonalEdgeStyle;rounded=0;orthogonalLoop=1;jettySize=auto;html=1;" edge="1" parent="1" source="r5M-6qAJxc-QIYMJjNey-97" target="r5M-6qAJxc-QIYMJjNey-99">
          <mxGeometry relative="1" as="geometry" />
        </mxCell>
        <mxCell id="r5M-6qAJxc-QIYMJjNey-97" value="通知文章发布者" style="rounded=1;whiteSpace=wrap;html=1;" vertex="1" parent="1">
          <mxGeometry x="750" y="1430" width="120" height="60" as="geometry" />
        </mxCell>
        <mxCell id="r5M-6qAJxc-QIYMJjNey-102" value="" style="edgeStyle=orthogonalEdgeStyle;rounded=0;orthogonalLoop=1;jettySize=auto;html=1;" edge="1" parent="1" source="r5M-6qAJxc-QIYMJjNey-99" target="r5M-6qAJxc-QIYMJjNey-101">
          <mxGeometry relative="1" as="geometry" />
        </mxCell>
        <mxCell id="r5M-6qAJxc-QIYMJjNey-99" value="&lt;span&gt;请求腾讯云TPNS消息通知&lt;/span&gt;" style="rounded=1;whiteSpace=wrap;html=1;" vertex="1" parent="1">
          <mxGeometry x="950" y="1430" width="120" height="60" as="geometry" />
        </mxCell>
        <mxCell id="r5M-6qAJxc-QIYMJjNey-101" value="完成" style="rounded=1;whiteSpace=wrap;html=1;" vertex="1" parent="1">
          <mxGeometry x="950" y="1290" width="120" height="60" as="geometry" />
        </mxCell>
        <mxCell id="r5M-6qAJxc-QIYMJjNey-103" value="完成" style="rounded=1;whiteSpace=wrap;html=1;" vertex="1" parent="1">
          <mxGeometry x="350" y="1430" width="120" height="60" as="geometry" />
        </mxCell>
        <mxCell id="r5M-6qAJxc-QIYMJjNey-108" value="" style="edgeStyle=orthogonalEdgeStyle;rounded=0;orthogonalLoop=1;jettySize=auto;html=1;" edge="1" parent="1" source="r5M-6qAJxc-QIYMJjNey-106" target="r5M-6qAJxc-QIYMJjNey-107">
          <mxGeometry relative="1" as="geometry" />
        </mxCell>
        <mxCell id="r5M-6qAJxc-QIYMJjNey-106" value="Actor" style="shape=umlActor;verticalLabelPosition=bottom;verticalAlign=top;html=1;outlineConnect=0;" vertex="1" parent="1">
          <mxGeometry x="40" y="1540" width="30" height="60" as="geometry" />
        </mxCell>
        <mxCell id="r5M-6qAJxc-QIYMJjNey-110" value="" style="edgeStyle=orthogonalEdgeStyle;rounded=0;orthogonalLoop=1;jettySize=auto;html=1;" edge="1" parent="1" source="r5M-6qAJxc-QIYMJjNey-107" target="r5M-6qAJxc-QIYMJjNey-109">
          <mxGeometry relative="1" as="geometry" />
        </mxCell>
        <mxCell id="r5M-6qAJxc-QIYMJjNey-107" value="收藏文章/取消收藏" style="rounded=1;whiteSpace=wrap;html=1;" vertex="1" parent="1">
          <mxGeometry x="150" y="1540" width="120" height="60" as="geometry" />
        </mxCell>
        <mxCell id="r5M-6qAJxc-QIYMJjNey-112" value="" style="edgeStyle=orthogonalEdgeStyle;rounded=0;orthogonalLoop=1;jettySize=auto;html=1;" edge="1" parent="1" source="r5M-6qAJxc-QIYMJjNey-109" target="r5M-6qAJxc-QIYMJjNey-111">
          <mxGeometry relative="1" as="geometry" />
        </mxCell>
        <mxCell id="r5M-6qAJxc-QIYMJjNey-109" value="收藏文章" style="rounded=1;whiteSpace=wrap;html=1;" vertex="1" parent="1">
          <mxGeometry x="350" y="1540" width="120" height="60" as="geometry" />
        </mxCell>
        <mxCell id="r5M-6qAJxc-QIYMJjNey-114" value="" style="edgeStyle=orthogonalEdgeStyle;rounded=0;orthogonalLoop=1;jettySize=auto;html=1;" edge="1" parent="1" source="r5M-6qAJxc-QIYMJjNey-111" target="r5M-6qAJxc-QIYMJjNey-113">
          <mxGeometry relative="1" as="geometry" />
        </mxCell>
        <mxCell id="r5M-6qAJxc-QIYMJjNey-111" value="通知校验" style="rounded=1;whiteSpace=wrap;html=1;" vertex="1" parent="1">
          <mxGeometry x="550" y="1540" width="120" height="60" as="geometry" />
        </mxCell>
        <mxCell id="r5M-6qAJxc-QIYMJjNey-116" value="" style="edgeStyle=orthogonalEdgeStyle;rounded=0;orthogonalLoop=1;jettySize=auto;html=1;" edge="1" parent="1" source="r5M-6qAJxc-QIYMJjNey-113" target="r5M-6qAJxc-QIYMJjNey-115">
          <mxGeometry relative="1" as="geometry" />
        </mxCell>
        <mxCell id="r5M-6qAJxc-QIYMJjNey-155" value="" style="edgeStyle=orthogonalEdgeStyle;rounded=0;orthogonalLoop=1;jettySize=auto;html=1;" edge="1" parent="1" source="r5M-6qAJxc-QIYMJjNey-113" target="r5M-6qAJxc-QIYMJjNey-119">
          <mxGeometry relative="1" as="geometry" />
        </mxCell>
        <mxCell id="r5M-6qAJxc-QIYMJjNey-113" value="通知" style="rounded=1;whiteSpace=wrap;html=1;" vertex="1" parent="1">
          <mxGeometry x="750" y="1540" width="120" height="60" as="geometry" />
        </mxCell>
        <mxCell id="r5M-6qAJxc-QIYMJjNey-118" value="" style="edgeStyle=orthogonalEdgeStyle;rounded=0;orthogonalLoop=1;jettySize=auto;html=1;" edge="1" parent="1" source="r5M-6qAJxc-QIYMJjNey-115" target="r5M-6qAJxc-QIYMJjNey-117">
          <mxGeometry relative="1" as="geometry" />
        </mxCell>
        <mxCell id="r5M-6qAJxc-QIYMJjNey-115" value="通知文章发布者" style="rounded=1;whiteSpace=wrap;html=1;" vertex="1" parent="1">
          <mxGeometry x="750" y="1680" width="120" height="60" as="geometry" />
        </mxCell>
        <mxCell id="r5M-6qAJxc-QIYMJjNey-120" value="" style="edgeStyle=orthogonalEdgeStyle;rounded=0;orthogonalLoop=1;jettySize=auto;html=1;" edge="1" parent="1" source="r5M-6qAJxc-QIYMJjNey-117" target="r5M-6qAJxc-QIYMJjNey-119">
          <mxGeometry relative="1" as="geometry" />
        </mxCell>
        <mxCell id="r5M-6qAJxc-QIYMJjNey-117" value="请求腾讯云TPNS消息通知" style="rounded=1;whiteSpace=wrap;html=1;" vertex="1" parent="1">
          <mxGeometry x="950" y="1680" width="120" height="60" as="geometry" />
        </mxCell>
        <mxCell id="r5M-6qAJxc-QIYMJjNey-119" value="完成" style="rounded=1;whiteSpace=wrap;html=1;" vertex="1" parent="1">
          <mxGeometry x="950" y="1540" width="120" height="60" as="geometry" />
        </mxCell>
        <mxCell id="r5M-6qAJxc-QIYMJjNey-123" value="" style="edgeStyle=orthogonalEdgeStyle;rounded=0;orthogonalLoop=1;jettySize=auto;html=1;" edge="1" parent="1" source="r5M-6qAJxc-QIYMJjNey-121" target="r5M-6qAJxc-QIYMJjNey-122">
          <mxGeometry relative="1" as="geometry" />
        </mxCell>
        <mxCell id="r5M-6qAJxc-QIYMJjNey-121" value="Actor" style="shape=umlActor;verticalLabelPosition=bottom;verticalAlign=top;html=1;outlineConnect=0;" vertex="1" parent="1">
          <mxGeometry x="50" y="1760" width="30" height="60" as="geometry" />
        </mxCell>
        <mxCell id="r5M-6qAJxc-QIYMJjNey-125" value="" style="edgeStyle=orthogonalEdgeStyle;rounded=0;orthogonalLoop=1;jettySize=auto;html=1;" edge="1" parent="1" source="r5M-6qAJxc-QIYMJjNey-122" target="r5M-6qAJxc-QIYMJjNey-124">
          <mxGeometry relative="1" as="geometry" />
        </mxCell>
        <mxCell id="r5M-6qAJxc-QIYMJjNey-122" value="关注/取消关注" style="rounded=1;whiteSpace=wrap;html=1;" vertex="1" parent="1">
          <mxGeometry x="150" y="1760" width="120" height="60" as="geometry" />
        </mxCell>
        <mxCell id="r5M-6qAJxc-QIYMJjNey-127" value="" style="edgeStyle=orthogonalEdgeStyle;rounded=0;orthogonalLoop=1;jettySize=auto;html=1;" edge="1" parent="1" source="r5M-6qAJxc-QIYMJjNey-124" target="r5M-6qAJxc-QIYMJjNey-126">
          <mxGeometry relative="1" as="geometry" />
        </mxCell>
        <mxCell id="r5M-6qAJxc-QIYMJjNey-124" value="用户关注" style="rounded=1;whiteSpace=wrap;html=1;" vertex="1" parent="1">
          <mxGeometry x="350" y="1760" width="120" height="60" as="geometry" />
        </mxCell>
        <mxCell id="r5M-6qAJxc-QIYMJjNey-129" value="" style="edgeStyle=orthogonalEdgeStyle;rounded=0;orthogonalLoop=1;jettySize=auto;html=1;" edge="1" parent="1" source="r5M-6qAJxc-QIYMJjNey-126" target="r5M-6qAJxc-QIYMJjNey-128">
          <mxGeometry relative="1" as="geometry" />
        </mxCell>
        <mxCell id="r5M-6qAJxc-QIYMJjNey-131" value="" style="edgeStyle=orthogonalEdgeStyle;rounded=0;orthogonalLoop=1;jettySize=auto;html=1;" edge="1" parent="1" source="r5M-6qAJxc-QIYMJjNey-126" target="r5M-6qAJxc-QIYMJjNey-130">
          <mxGeometry relative="1" as="geometry" />
        </mxCell>
        <mxCell id="r5M-6qAJxc-QIYMJjNey-126" value="添加关注记录" style="rounded=1;whiteSpace=wrap;html=1;" vertex="1" parent="1">
          <mxGeometry x="550" y="1760" width="120" height="60" as="geometry" />
        </mxCell>
        <mxCell id="r5M-6qAJxc-QIYMJjNey-138" value="" style="edgeStyle=orthogonalEdgeStyle;rounded=0;orthogonalLoop=1;jettySize=auto;html=1;" edge="1" parent="1" source="r5M-6qAJxc-QIYMJjNey-128" target="r5M-6qAJxc-QIYMJjNey-137">
          <mxGeometry relative="1" as="geometry" />
        </mxCell>
        <mxCell id="r5M-6qAJxc-QIYMJjNey-128" value="通知" style="rounded=1;whiteSpace=wrap;html=1;" vertex="1" parent="1">
          <mxGeometry x="760" y="1760" width="120" height="60" as="geometry" />
        </mxCell>
        <mxCell id="r5M-6qAJxc-QIYMJjNey-133" value="" style="edgeStyle=orthogonalEdgeStyle;rounded=0;orthogonalLoop=1;jettySize=auto;html=1;" edge="1" parent="1" source="r5M-6qAJxc-QIYMJjNey-130" target="r5M-6qAJxc-QIYMJjNey-132">
          <mxGeometry relative="1" as="geometry" />
        </mxCell>
        <mxCell id="r5M-6qAJxc-QIYMJjNey-144" value="" style="edgeStyle=orthogonalEdgeStyle;rounded=0;orthogonalLoop=1;jettySize=auto;html=1;" edge="1" parent="1" source="r5M-6qAJxc-QIYMJjNey-130" target="r5M-6qAJxc-QIYMJjNey-143">
          <mxGeometry relative="1" as="geometry" />
        </mxCell>
        <mxCell id="r5M-6qAJxc-QIYMJjNey-130" value="添加好友，是否为互相关注" style="rounded=1;whiteSpace=wrap;html=1;" vertex="1" parent="1">
          <mxGeometry x="550" y="1900" width="120" height="60" as="geometry" />
        </mxCell>
        <mxCell id="r5M-6qAJxc-QIYMJjNey-147" value="" style="edgeStyle=orthogonalEdgeStyle;rounded=0;orthogonalLoop=1;jettySize=auto;html=1;" edge="1" parent="1" source="r5M-6qAJxc-QIYMJjNey-132" target="r5M-6qAJxc-QIYMJjNey-135">
          <mxGeometry relative="1" as="geometry" />
        </mxCell>
        <mxCell id="r5M-6qAJxc-QIYMJjNey-132" value="添加双向好友" style="rounded=1;whiteSpace=wrap;html=1;" vertex="1" parent="1">
          <mxGeometry x="550" y="2040" width="120" height="60" as="geometry" />
        </mxCell>
        <mxCell id="r5M-6qAJxc-QIYMJjNey-134" value="真" style="text;html=1;align=center;verticalAlign=middle;resizable=0;points=[];autosize=1;strokeColor=none;fillColor=none;" vertex="1" parent="1">
          <mxGeometry x="620" y="1990" width="30" height="20" as="geometry" />
        </mxCell>
        <mxCell id="r5M-6qAJxc-QIYMJjNey-142" value="" style="edgeStyle=orthogonalEdgeStyle;rounded=0;orthogonalLoop=1;jettySize=auto;html=1;" edge="1" parent="1" source="r5M-6qAJxc-QIYMJjNey-135" target="r5M-6qAJxc-QIYMJjNey-141">
          <mxGeometry relative="1" as="geometry" />
        </mxCell>
        <mxCell id="r5M-6qAJxc-QIYMJjNey-135" value="请求腾讯云TPNS消息" style="rounded=1;whiteSpace=wrap;html=1;" vertex="1" parent="1">
          <mxGeometry x="950" y="1850" width="120" height="60" as="geometry" />
        </mxCell>
        <mxCell id="r5M-6qAJxc-QIYMJjNey-139" value="" style="edgeStyle=orthogonalEdgeStyle;rounded=0;orthogonalLoop=1;jettySize=auto;html=1;" edge="1" parent="1" source="r5M-6qAJxc-QIYMJjNey-137" target="r5M-6qAJxc-QIYMJjNey-135">
          <mxGeometry relative="1" as="geometry" />
        </mxCell>
        <mxCell id="r5M-6qAJxc-QIYMJjNey-137" value="通知被关注者" style="rounded=1;whiteSpace=wrap;html=1;" vertex="1" parent="1">
          <mxGeometry x="760" y="1850" width="120" height="60" as="geometry" />
        </mxCell>
        <mxCell id="r5M-6qAJxc-QIYMJjNey-141" value="完成" style="rounded=1;whiteSpace=wrap;html=1;" vertex="1" parent="1">
          <mxGeometry x="950" y="1760" width="120" height="60" as="geometry" />
        </mxCell>
        <mxCell id="r5M-6qAJxc-QIYMJjNey-143" value="跳过" style="rounded=1;whiteSpace=wrap;html=1;" vertex="1" parent="1">
          <mxGeometry x="354" y="1900" width="120" height="60" as="geometry" />
        </mxCell>
        <mxCell id="r5M-6qAJxc-QIYMJjNey-145" value="假" style="text;html=1;align=center;verticalAlign=middle;resizable=0;points=[];autosize=1;strokeColor=none;fillColor=none;" vertex="1" parent="1">
          <mxGeometry x="505" y="1900" width="30" height="20" as="geometry" />
        </mxCell>
        <mxCell id="r5M-6qAJxc-QIYMJjNey-150" value="" style="edgeStyle=orthogonalEdgeStyle;rounded=0;orthogonalLoop=1;jettySize=auto;html=1;" edge="1" parent="1" source="r5M-6qAJxc-QIYMJjNey-148" target="r5M-6qAJxc-QIYMJjNey-149">
          <mxGeometry relative="1" as="geometry" />
        </mxCell>
        <mxCell id="r5M-6qAJxc-QIYMJjNey-148" value="Actor" style="shape=umlActor;verticalLabelPosition=bottom;verticalAlign=top;html=1;outlineConnect=0;" vertex="1" parent="1">
          <mxGeometry x="30" y="2500" width="30" height="60" as="geometry" />
        </mxCell>
        <mxCell id="r5M-6qAJxc-QIYMJjNey-152" value="" style="edgeStyle=orthogonalEdgeStyle;rounded=0;orthogonalLoop=1;jettySize=auto;html=1;" edge="1" parent="1" source="r5M-6qAJxc-QIYMJjNey-149" target="r5M-6qAJxc-QIYMJjNey-151">
          <mxGeometry relative="1" as="geometry" />
        </mxCell>
        <mxCell id="r5M-6qAJxc-QIYMJjNey-149" value="宠物记录" style="rounded=1;whiteSpace=wrap;html=1;" vertex="1" parent="1">
          <mxGeometry x="140" y="2500" width="120" height="60" as="geometry" />
        </mxCell>
        <mxCell id="r5M-6qAJxc-QIYMJjNey-154" value="" style="edgeStyle=orthogonalEdgeStyle;rounded=0;orthogonalLoop=1;jettySize=auto;html=1;" edge="1" parent="1" source="r5M-6qAJxc-QIYMJjNey-151" target="r5M-6qAJxc-QIYMJjNey-153">
          <mxGeometry relative="1" as="geometry" />
        </mxCell>
        <mxCell id="r5M-6qAJxc-QIYMJjNey-151" value="填写记录信息" style="rounded=1;whiteSpace=wrap;html=1;" vertex="1" parent="1">
          <mxGeometry x="340" y="2500" width="120" height="60" as="geometry" />
        </mxCell>
        <mxCell id="r5M-6qAJxc-QIYMJjNey-153" value="完成" style="rounded=1;whiteSpace=wrap;html=1;" vertex="1" parent="1">
          <mxGeometry x="540" y="2500" width="120" height="60" as="geometry" />
        </mxCell>
        <mxCell id="r5M-6qAJxc-QIYMJjNey-158" value="" style="edgeStyle=orthogonalEdgeStyle;rounded=0;orthogonalLoop=1;jettySize=auto;html=1;" edge="1" parent="1" source="r5M-6qAJxc-QIYMJjNey-156" target="r5M-6qAJxc-QIYMJjNey-157">
          <mxGeometry relative="1" as="geometry" />
        </mxCell>
        <mxCell id="r5M-6qAJxc-QIYMJjNey-156" value="Actor" style="shape=umlActor;verticalLabelPosition=bottom;verticalAlign=top;html=1;outlineConnect=0;" vertex="1" parent="1">
          <mxGeometry x="45" y="2170" width="30" height="60" as="geometry" />
        </mxCell>
        <mxCell id="r5M-6qAJxc-QIYMJjNey-160" value="" style="edgeStyle=orthogonalEdgeStyle;rounded=0;orthogonalLoop=1;jettySize=auto;html=1;" edge="1" parent="1" source="r5M-6qAJxc-QIYMJjNey-157" target="r5M-6qAJxc-QIYMJjNey-159">
          <mxGeometry relative="1" as="geometry" />
        </mxCell>
        <mxCell id="r5M-6qAJxc-QIYMJjNey-157" value="用户沟通" style="rounded=1;whiteSpace=wrap;html=1;" vertex="1" parent="1">
          <mxGeometry x="145" y="2170" width="120" height="60" as="geometry" />
        </mxCell>
        <mxCell id="r5M-6qAJxc-QIYMJjNey-162" value="" style="edgeStyle=orthogonalEdgeStyle;rounded=0;orthogonalLoop=1;jettySize=auto;html=1;" edge="1" parent="1" source="r5M-6qAJxc-QIYMJjNey-159">
          <mxGeometry relative="1" as="geometry">
            <mxPoint x="545" y="2199.9999999999995" as="targetPoint" />
          </mxGeometry>
        </mxCell>
        <mxCell id="r5M-6qAJxc-QIYMJjNey-159" value="发送图文/地址消息" style="whiteSpace=wrap;html=1;rounded=1;" vertex="1" parent="1">
          <mxGeometry x="345" y="2170" width="120" height="60" as="geometry" />
        </mxCell>
        <mxCell id="r5M-6qAJxc-QIYMJjNey-169" value="" style="edgeStyle=orthogonalEdgeStyle;rounded=0;orthogonalLoop=1;jettySize=auto;html=1;" edge="1" parent="1" source="r5M-6qAJxc-QIYMJjNey-163" target="r5M-6qAJxc-QIYMJjNey-168">
          <mxGeometry relative="1" as="geometry" />
        </mxCell>
        <mxCell id="r5M-6qAJxc-QIYMJjNey-163" value="发送图文/地址消息" style="whiteSpace=wrap;html=1;rounded=1;" vertex="1" parent="1">
          <mxGeometry x="345" y="2170" width="120" height="60" as="geometry" />
        </mxCell>
        <mxCell id="r5M-6qAJxc-QIYMJjNey-167" value="" style="edgeStyle=orthogonalEdgeStyle;rounded=0;orthogonalLoop=1;jettySize=auto;html=1;" edge="1" parent="1" source="r5M-6qAJxc-QIYMJjNey-165" target="r5M-6qAJxc-QIYMJjNey-166">
          <mxGeometry relative="1" as="geometry" />
        </mxCell>
        <mxCell id="r5M-6qAJxc-QIYMJjNey-165" value="通知内容" style="rounded=1;whiteSpace=wrap;html=1;" vertex="1" parent="1">
          <mxGeometry x="550" y="2170" width="120" height="60" as="geometry" />
        </mxCell>
        <mxCell id="r5M-6qAJxc-QIYMJjNey-166" value="完成" style="whiteSpace=wrap;html=1;rounded=1;" vertex="1" parent="1">
          <mxGeometry x="750" y="2170" width="120" height="60" as="geometry" />
        </mxCell>
        <mxCell id="r5M-6qAJxc-QIYMJjNey-172" value="" style="edgeStyle=orthogonalEdgeStyle;rounded=0;orthogonalLoop=1;jettySize=auto;html=1;entryX=0.5;entryY=1;entryDx=0;entryDy=0;" edge="1" parent="1" source="r5M-6qAJxc-QIYMJjNey-168" target="r5M-6qAJxc-QIYMJjNey-166">
          <mxGeometry relative="1" as="geometry">
            <mxPoint x="545" y="2339.9999999999995" as="targetPoint" />
          </mxGeometry>
        </mxCell>
        <mxCell id="r5M-6qAJxc-QIYMJjNey-168" value="消息回调" style="whiteSpace=wrap;html=1;rounded=1;" vertex="1" parent="1">
          <mxGeometry x="345" y="2310" width="120" height="60" as="geometry" />
        </mxCell>
        <mxCell id="r5M-6qAJxc-QIYMJjNey-170" value="发送成功" style="text;html=1;align=center;verticalAlign=middle;resizable=0;points=[];autosize=1;strokeColor=none;fillColor=none;" vertex="1" parent="1">
          <mxGeometry x="415" y="2260" width="60" height="20" as="geometry" />
        </mxCell>
      </root>
    </mxGraphModel>
  </diagram>
</mxfile>
